# xmcd
#
# Track frame offsets:
#	150
#	18012
#	31033
#	47050
#	71743
#	95911
#	111541
#	124617
#	141646
#	153886
#	179587
#	198187
#	215064
#	235852
#	259498
#
# Disc length: 3762 seconds
#
# Revision: 0
# Processed by: cddbd v1.5.2PL0 Copyright (c) Steve Scherf et al.
# Submitted via: dBpowerAMP V4.0
#
DISCID=e00eb00f
DTITLE=Various Artist - Female From Vocalist
DYEAR=1900
DGENRE=Blues
TTITLE0=Summer Rain
TTITLE1=One and Only
TTITLE2=Dulce Marioneta
TTITLE3=Like a Lover Like a Lover
TTITLE4=The Fool on the Hill
TTITLE5=Stop Those Bells
TTITLE6=Not My Friend
TTITLE7=Turbulent tTme Of Life
TTITLE8=Cry Me A River
TTITLE9=Away Down The River
TTITLE10=At Night
TTITLE11=When The World Turns Blue
TTITLE12=The Summer Knows
TTITLE13=I'v Grown Accustomed To His Face
TTITLE14=Walk On By
EXTD=
EXTT0=
EXTT1=
EXTT2=
EXTT3=
EXTT4=
EXTT5=
EXTT6=
EXTT7=
EXTT8=
EXTT9=
EXTT10=
EXTT11=
EXTT12=
EXTT13=
EXTT14=
PLAYORDER=
